<?xml version="1.0" encoding="UTF-8" standalone="no"?>
<svg
   viewBox="0 0 92.16 202.38"
   version="1.1"
   id="svg10"
   sodipodi:docname="kap1.svg"
   inkscape:version="1.1.2 (b8e25be833, 2022-02-05)"
   xmlns:inkscape="http://www.inkscape.org/namespaces/inkscape"
   xmlns:sodipodi="http://sodipodi.sourceforge.net/DTD/sodipodi-0.dtd"
   xmlns="http://www.w3.org/2000/svg"
   xmlns:svg="http://www.w3.org/2000/svg">
  <sodipodi:namedview
     id="namedview12"
     pagecolor="#ffffff"
     bordercolor="#666666"
     borderopacity="1.0"
     inkscape:pageshadow="2"
     inkscape:pageopacity="0.0"
     inkscape:pagecheckerboard="0"
     showgrid="false"
     inkscape:zoom="4.1061369"
     inkscape:cx="-1.8265343"
     inkscape:cy="101.06823"
     inkscape:window-width="1920"
     inkscape:window-height="1017"
     inkscape:window-x="-8"
     inkscape:window-y="-8"
     inkscape:window-maximized="1"
     inkscape:current-layer="svg10" />
  <defs
     id="defs4">
    <style
       id="style2">.cls-1{fill:#1d3e7b;}</style>
  </defs>
  <path
     style="fill:#ffffff;stroke:none;stroke-width:1px;stroke-linecap:butt;stroke-linejoin:miter;stroke-opacity:1;fill-opacity:0.01"
     d="M 46.515741,29.468087 8.280289,140.0343 23.866715,185.81943 46.272203,193.85618 74.035525,178.75683 82.072276,143.68737 66.729388,80.123973 47.733431,30.442239 v 0"
     id="path146" />
  <g
     id="Слой_2"
     data-name="Слой 2">
    <g
       id="Слой_2-2"
       data-name="Слой 2">
      <path
         class="cls-1"
         d="M78.58,84.76C62.61,37,51.24,0,51.24,0S20.54,57.87,12.17,91.27C7,111.77-2.15,133.47.46,158.56c2.72,26.29,26.76,43.82,45.62,43.82,18,0,36.46-11.06,44.27-40.36C96.32,139.62,86.29,107.8,78.58,84.76ZM70.9,156.05c-4.38,16.43-14.75,22.64-24.82,22.64-10.58,0-24-9.83-25.58-24.58C19,140,25.31,122,29.22,110.79,36.09,91.1,47.48,52.61,47.48,52.61s6.05,31,15,57.79C66.8,123.32,74.25,143.49,70.9,156.05Z"
         id="path6" />
    </g>
  </g>
</svg>
