<svg xmlns="http://www.w3.org/2000/svg" viewBox="0 0 82.27 199.48"><defs><style>.cls-1{fill:#fff;opacity:0.01;}.cls-2{fill:#1d3e7b;}</style></defs><g id="Layer_2" data-name="Layer 2"><g id="Layer_1-2" data-name="Layer 1"><path class="cls-1" d="M6.45,157s14.15-51.76,14.6-53.09S41.13,39.79,41.13,39.79L60.86,82.7l12.83,53.53v23.44l-5,15.93-20.23,15L15.29,180.2Z"/><g id="Слой_2" data-name="Слой 2"><g id="Слой_2-2" data-name="Слой 2-2"><path class="cls-2" d="M68.88,83.54C53.14,36.48,41.93,0,41.93,0S21.75,56.73,13.51,89.66C8.45,109.86-2.17,137.44.39,162.17c2.69,25.92,22.15,37.31,40.74,37.31,17.71,0,31.65-10.91,39.35-39.78C86.36,137.62,76.48,106.26,68.88,83.54Zm-1.27,73.27c-4.67,17-13.14,23.39-23.89,23.39-11.29,0-23.11-6.7-24.74-21.94-1.56-14.54,5.62-33.51,8.69-45.39,5-19.36,16-53.85,16-53.85S51,84.36,60.57,112C65.18,125.39,71.19,143.83,67.61,156.81Z"/></g></g></g></g></svg>