<svg xmlns="http://www.w3.org/2000/svg" viewBox="0 0 96.71 203.89"><defs><style>.cls-1{fill:#fff;stroke:#000;stroke-miterlimit:10;opacity:0.01;}.cls-2{fill:#1d3e7b;}</style></defs><g id="Layer_2" data-name="Layer 2"><g id="Layer_1-2" data-name="Layer 1"><polygon class="cls-1" points="8.57 157.69 13.88 122.3 28.92 76.29 39.09 28.96 62.1 61.25 78.06 104.61 87.31 144.86 78.06 180.67 43.96 194.41 8.57 170.52 8.57 157.69"/><g id="Слой_2" data-name="Слой 2"><g id="Слой_2-2" data-name="Слой 2-2"><path class="cls-2" d="M79.26,85.38C55.22,29.41,35.66,0,35.66,0S26,43.7,16.49,81.76c-5.85,23.36-19,50.54-16.07,79.13,3.11,30,26.43,43,47.93,43,20.47,0,37.38-9.27,46.29-42.66C101.44,135.74,90.18,110.82,79.26,85.38Zm-3.91,75.14c-5.06,18.95-15.39,20.16-27,20.15-12.2,0-25.44-7.41-27.2-24.42C19.46,140,27,124.6,30.27,111.35c5.41-21.61,15.56-58,15.56-58a249.32,249.32,0,0,1,26.83,57.44c6.83,21.64,6.55,35.21,2.69,49.73Z"/></g></g></g></g></svg>