<svg xmlns="http://www.w3.org/2000/svg" viewBox="0 0 87.02 193.48"><defs><style>.cls-1{fill:#fff;stroke:#000;stroke-miterlimit:10;opacity:0.01;}.cls-2{fill:#1d3e7b;}</style></defs><g id="Layer_2" data-name="Layer 2"><g id="Layer_1-2" data-name="Layer 1"><polygon class="cls-1" points="43.5 179.68 19.95 167.24 10.53 127.25 19.95 91.42 43.51 26.39 55.65 56.91 69.27 94.08 78.21 133.89 69.27 167.24 43.5 179.68"/><g id="Слой_2" data-name="Слой 2"><g id="Слой_2-2" data-name="Слой 2-2"><path class="cls-2" d="M75,80.53C54.67,20.92,45.29,0,45.29,0S32.62,19.93,11.81,84.33C4.3,107.59-2.35,134.76.81,152.67,4,171.19,23.5,193.28,43.5,193.48c21.4.21,38.35-18.2,42.87-43.36C88.83,136.4,84.23,107.68,75,80.53Zm-6.1,64.14c-2.44,13.59-12.37,22.68-23.9,22.57-10.81-.11-22.79-14.71-24.53-24.71-1.69-9.68,1.06-24.72,6-36.92,14-34.72,17.12-56.27,17.12-56.27s8.66,23.83,19.63,56C68.12,120,70.21,137.26,68.88,144.67Z"/></g></g></g></g></svg>