<svg xmlns="http://www.w3.org/2000/svg" viewBox="0 0 320.79 104.75"><defs><style>.cls-1{fill:#1d3e7b;}</style></defs><g id="Слой_2" data-name="Слой 2"><g id="Слой_2-2" data-name="Слой 2"><path class="cls-1" d="M39.65,61.17,22.91,60.06a2.69,2.69,0,0,0-2.44,1.27h0l3.92.78L34.55,64c1,.08,2.14,2.51,1.84,3.49-2.22,7.23-9.51,32.9-19.19,32.27C5.9,99,2.46,74.61,8.53,50.2c4.66-18.76,13.29-28.16,17-31.51a10.08,10.08,0,0,1,5.59-2.56c4.16-.42,8.92,8.66,6.66,19.23-.24,1.14,1.77-1,2.09-2,.49-1.59,3.49-15.34-4.33-20.62C30,9,21.77,15.27,17.27,19.58.74,35.39-.42,65.89.09,82.08A30.39,30.39,0,0,0,2.75,93.85c2.18,4.75,6.1,10,12.89,10.77C28.07,106,38.2,87.69,41.9,64.3,42.07,63.24,40.72,61.21,39.65,61.17Z"/><polygon class="cls-1" points="82.47 0 56.64 0 57.82 104.67 133.34 104.67 133.34 100.53 82.47 100.53 82.47 0"/><path class="cls-1" d="M156.46,50.08c-37.47,0-38.64,54.1,2.69,54.59C196.88,105.12,204.88,50.08,156.46,50.08Zm8.38,50.41c-3.17,1.92-8,1.36-11.21-.52a26,26,0,0,1-12.07-18.59c-3.64-25,9.91-28.31,14.74-28.31,7.44,0,20.48,5.22,21.13,25.44C177.85,91.43,170.13,97.29,164.84,100.49Z"/><path class="cls-1" d="M237.92,4.49S221.09-.6,205.83,45.57c-9.9,30-5.87,44-2,51.4,4.23,8.14,14.13,9.94,19.61,5.18,5.86-5.08,12.93-16.56,19.37-40.53C257,8.92,237.92,4.49,237.92,4.49Zm-1.81,59.88c-5.56,16.14-9.21,26.78-13.45,32.6-3.94,5.41-11.91,4.59-14.42-2.42-3.26-9.07-2.35-24.5,4.15-44.45C225,11.37,233.11,8.24,236.94,9,241.8,10,249.23,26.31,236.11,64.37Z"/><path class="cls-1" d="M316.36,66.45c-11.47-21.5-26.77,1.94-26.77,1.94C279.31,50.1,264,61.25,264,61.25V58.12H251.83s-2.35,42.65-2.35,43.14h13.4s.29-32.28,11.45-32.09,8.7,33.07,8.7,33.07h11.55s.58-38.35,10.36-30.33,4.51,30.41,4.51,30.41l10.57,0h0a102,102,0,0,0,.42-21.09A36.15,36.15,0,0,0,316.36,66.45Z"/></g></g></svg>