<svg xmlns="http://www.w3.org/2000/svg" viewBox="0 0 115.75 128.52"><defs><style>.cls-1{fill:#fff;}</style></defs><g id="Слой_2" data-name="Слой 2"><g id="Слой_3" data-name="Слой 3"><path class="cls-1" d="M59.53,3.51c0-2.25,0-3.51,0-3.51h-4V3.59C8,6.87,0,49.89,0,49.89l3.33,1.62s4.9-5.26,14.27-4.45c8.86.76,11.07,6.65,11.07,6.65l3.09.32a19.06,19.06,0,0,1,4.41-5.31c2.11-1.53,5.67-2,9-2,2.57,0,5,.87,8.36,3.6a15.41,15.41,0,0,1,2,1.95v63.32a8.86,8.86,0,0,1-7,8.69l-.19,0c-7.06,1.39-10.08-6.12-10.08-6.12l-4,1.8s5.43,9.15,13.14,8.46c8-.72,11.29-6.53,12-11.28.38-2.63.38-34.54.31-64.39a15.24,15.24,0,0,1,2.49-2.52c3.37-2.72,5.79-3.57,8.36-3.59,3.33,0,6.89.44,9,2A19.06,19.06,0,0,1,84,54l3.09-.31s2.2-5.89,11.07-6.66c9.37-.81,14.27,4.45,14.27,4.45l3.33-1.62S107.69,6.44,59.53,3.51ZM28.84,48s-5.4-9.89-23.67-2.87c0,0,10.8-35.5,48.05-38.11C53.22,7,32.7,23,28.84,48ZM56,46.59s-12.18-8.66-23,.79c0,0,1.4-19.34,23-39.82Zm3.82,0v-39c21.57,20.48,23,39.83,23,39.83C72,37.92,59.77,46.58,59.77,46.58ZM87.3,47.8c-3.68-24.92-23.25-41-23.25-41,35.52,2.6,45.82,38.1,45.82,38.1C92.45,37.9,87.3,47.8,87.3,47.8Z"/></g></g></svg>