<svg xmlns="http://www.w3.org/2000/svg" viewBox="0 0 534.25 344.58"><defs><style>.cls-1{fill:#1d3e7b;}</style></defs><g id="Слой_2" data-name="Слой 2"><g id="Слой_3" data-name="Слой 3"><path class="cls-1" d="M14.24,276.35c-30.81-27.39-3.3-73.66,5.19-88.56,16.44-28.83,42.27-32,61.05-41.21,28.75-14.17,34.19-48.36,61-64.17,34.72-20.45,60.19,11,116.61,7.82,27.39-1.56,42.26-23.48,117.39-61C425.83,4,488.22-11.9,507,11.19c15,18.5-6.78,40.9-13.3,66.52-5.4,21.21,17,38.24,28.95,63.39,14.48,30.49,18.12,76.17-5,98.61C492.54,264,431.89,208,377.87,226.41c-31.08,10.59-23.37,38.47-74.35,83.73-25.88,23-38.82,34.47-55.56,34.44-37.68-.07-67.86-57.07-104.87-69.79C104,261.35,49,307.29,14.24,276.35Z"/></g></g></svg>