<svg xmlns="http://www.w3.org/2000/svg" viewBox="0 0 31.29 43.22"><defs><style>.cls-1{fill:#fff;}</style></defs><g id="Слой_2" data-name="Слой 2"><g id="Слой_3" data-name="Слой 3"><path class="cls-1" d="M8.72,15c-1.25-.92-3.64-2.7-6.62-5a1.11,1.11,0,0,1-.21-1.53A21.13,21.13,0,0,1,8.4,2.8c2.27-1.26,7.52-4.17,12.92-2a13,13,0,0,1,6.45,6.06c1.77,3.26,1.73,6.3,1.67,8.91C29.3,21,26.37,25.83,24.87,28.14a97.41,97.41,0,0,1-8.71,11.65.29.29,0,0,0,.23.48l14.76,0a.14.14,0,0,1,.14.15V43a.13.13,0,0,1-.13.14c-1.92,0-23.74.06-30.19,0a1,1,0,0,1-.82-1.48c.44-.71,1.5-2,2.61-3.42,3.8-5,7-8.8,10-12.91,3.57-5,4.69-7.17,4.5-9.49,0-.16-.31-3.39-1.86-3.81-1.33-.37-3.61,1.6-4.86,2.8A1.37,1.37,0,0,1,8.72,15Z"/></g></g></svg>