<svg xmlns="http://www.w3.org/2000/svg" viewBox="0 0 31.05 42.37"><defs><style>.cls-1{fill:#1d1d1b;}</style></defs><g id="Слой_2" data-name="Слой 2"><g id="Слой_3" data-name="Слой 3"><path class="cls-1" d="M11,2.24,12.66.07,29.08,0a1.88,1.88,0,0,1,2,1.92c0,.87-3.61,3.81-3.61,3.81-6.75,5.92-7.5,6.56-7.5,6.56a6.74,6.74,0,0,1,3.9.84c2.77,1.39,3.91,4.33,4.52,5.91A15.48,15.48,0,0,1,29,27.65a17.76,17.76,0,0,1-5.15,9.19,17.2,17.2,0,0,1-9.46,5.28,14.16,14.16,0,0,1-8.09-.84A10.74,10.74,0,0,1,.77,36.52a8.85,8.85,0,0,1-.77-4,.27.27,0,0,1,.49-.16,28.48,28.48,0,0,0,2.56,3c.6.6,3.66,4,8.09,3.85a15.63,15.63,0,0,0,8.61-2.87A15.44,15.44,0,0,0,24,31.1a12.74,12.74,0,0,0,1.5-6.52,10.07,10.07,0,0,0-2.42-6.52,10.26,10.26,0,0,0-5.73-2.94A21.49,21.49,0,0,0,12,14.79a.14.14,0,0,1-.09-.25c.64-.46,2-1.43,3.63-2.68C17.45,10.44,20.5,8,23.4,5.42c2.43-2.17,3.38-3.07,3.38-3.07Z"/></g></g></svg>