<svg xmlns="http://www.w3.org/2000/svg" viewBox="0 0 234.61 129.35"><defs><style>.cls-1{fill:#93bddf;}</style></defs><g id="Слой_2" data-name="Слой 2"><g id="Слой_1-2" data-name="Слой 1"><path class="cls-1" d="M234.61,0c-1.66,11.1-2.77,20.6-3.52,28-1.29,12.69-1.93,22.94-2.15,26.8-1,17.37-.22,16.44-1.17,22.5-2.68,16.93-9.44,27.76-11,30.13-3.31,5.16-6.92,10.63-13.89,15.26a37,37,0,0,1-19.76,6.66,29.18,29.18,0,0,1-16.63-3.92,28.66,28.66,0,0,1-10.18-11.15,36.35,36.35,0,0,1-4.3-15.85c-.14-1.91,0-1.73,1.37-20.34,0,0,.2-2.71,0-9-.12-3.87-.34-5.83-1.37-8a12.84,12.84,0,0,0-7.44-6.84c-4.06-1.49-7.75-.2-10,0a60,60,0,0,0-20.34,5.67,386.54,386.54,0,0,0-37,19.56C57.94,91.32,57.18,93.05,47.18,97.63c-21.2,9.69-29.47,7.27-32.87,5.87-1.74-.71-8.55-3.77-12.13-11C-.24,87.7-.2,83,.22,78.65c1.68-17,9.8-31,11.35-33.65A341.08,341.08,0,0,1,43.46,0Z"/></g></g></svg>